<svg width="32" height="32" viewBox="0 0 32 32" fill="none" xmlns="http://www.w3.org/2000/svg">
  <rect width="32" height="32" rx="7" fill="white" fill-opacity="0.95"/>
  <!-- Cat head (left) -->
  <circle cx="11" cy="14" r="4" stroke="#374151" stroke-width="1.5" fill="none"/>
  <path d="M8 11L9 9" stroke="#374151" stroke-width="1.5" stroke-linecap="round"/>
  <path d="M11 11L12 9" stroke="#374151" stroke-width="1.5" stroke-linecap="round"/>
  <circle cx="10" cy="13" r="0.5" fill="#374151"/>
  <circle cx="12" cy="13" r="0.5" fill="#374151"/>
  <path d="M10.5 15C10.5 15.5 11 16 11 16C11 16 11.5 15.5 11.5 15" stroke="#374151" stroke-width="1" stroke-linecap="round"/>
  
  <!-- Dog head (right) -->
  <ellipse cx="21" cy="15" rx="4" ry="3.5" stroke="#374151" stroke-width="1.5" fill="none"/>
  <path d="M18 13C18 12 17.5 11.5 17 12" stroke="#374151" stroke-width="1.5" stroke-linecap="round"/>
  <path d="M24 13C24 12 24.5 11.5 25 12" stroke="#374151" stroke-width="1.5" stroke-linecap="round"/>
  <circle cx="20" cy="14" r="0.5" fill="#374151"/>
  <circle cx="22" cy="14" r="0.5" fill="#374151"/>
  <ellipse cx="21" cy="16" rx="0.5" ry="0.8" fill="#374151"/>
  
  <!-- Bodies/connection -->
  <path d="M11 18C11 20 13 22 16 22C19 22 21 20 21 18" stroke="#374151" stroke-width="1.5" stroke-linecap="round" fill="none"/>
</svg>